<?xml version="1.0" standalone="no"?>
<!DOCTYPE svg PUBLIC "-//W3C//DTD SVG 20010904//EN"
 "http://www.w3.org/TR/2001/REC-SVG-20010904/DTD/svg10.dtd">
<svg version="1.0" xmlns="http://www.w3.org/2000/svg"
 width="225.000000pt" height="225.000000pt" viewBox="0 0 225.000000 225.000000"
 preserveAspectRatio="xMidYMid meet">

<g transform="translate(0.000000,225.000000) scale(0.100000,-0.100000)"
fill="#000000" stroke="none">
<path d="M315 2025 c-5 -2 -22 -6 -37 -9 -64 -14 -137 -112 -138 -183 l0 -33
185 0 184 0 3 -712 3 -713 25 -45 c16 -28 43 -55 74 -75 l49 -30 641 0 c353 0
653 3 668 8 66 18 138 113 138 182 l0 35 -185 0 -184 0 -3 713 -3 714 -30 49
c-20 31 -47 58 -75 74 l-45 25 -630 2 c-346 1 -634 0 -640 -2z m1298 -68 c23
-13 47 -37 58 -59 18 -36 19 -69 19 -740 l0 -703 -399 -3 -398 -2 -7 -38 c-14
-86 -77 -142 -160 -142 -63 0 -122 33 -147 82 -18 35 -19 71 -19 751 -1 775
-2 791 -55 847 -23 24 -25 29 -9 32 9 1 256 2 548 0 525 -3 530 -3 569 -25z
m-1182 0 c35 -24 79 -81 79 -103 0 -11 -33 -14 -166 -14 l-165 0 6 23 c29 101
161 151 246 94z m1634 -1569 c-10 -35 -38 -71 -75 -96 l-33 -22 -511 -1 c-281
0 -528 -1 -549 -2 -20 -1 -37 0 -37 2 0 2 11 16 25 33 13 16 30 47 36 68 l12
40 569 0 569 0 -6 -22z"/>
<path d="M771 1586 c-28 -33 8 -36 370 -34 346 3 354 3 354 23 0 20 -8 20
-356 23 -293 2 -358 0 -368 -12z"/>
<path d="M766 1312 c-18 -30 13 -32 370 -30 332 3 359 4 362 21 3 16 -19 17
-362 17 -201 0 -367 -4 -370 -8z"/>
<path d="M770 1030 c0 -20 6 -20 366 -20 343 0 365 1 362 18 -3 16 -30 17
-366 20 -357 2 -362 2 -362 -18z"/>
<path d="M1387 760 c-48 -33 -89 -60 -92 -60 -2 0 -5 14 -7 31 -5 57 -25 57
-129 4 -111 -56 -128 -70 -111 -87 10 -10 31 -3 101 35 49 26 91 47 95 47 3 0
6 -20 6 -45 0 -36 4 -45 17 -45 28 0 234 141 231 158 -5 28 -22 22 -111 -38z"/>
</g>
</svg>
