<svg width="2822" height="1676" xmlns="http://www.w3.org/2000/svg" xmlns:xlink="http://www.w3.org/1999/xlink" xml:space="preserve" overflow="hidden"><defs><radialGradient cx="0" cy="0" r="0.99" gradientUnits="userSpaceOnUse" spreadMethod="pad" id="fill0" gradientTransform="matrix(261.115 0 0 261.115 1387.3 206.922)"><stop offset="0" stop-color="#FFFFFF"/><stop offset="0.3" stop-color="#F4E518"/><stop offset="0.59" stop-color="#F9C511"/><stop offset="1" stop-color="#F79247"/></radialGradient><radialGradient cx="0" cy="0" r="0.99" gradientUnits="userSpaceOnUse" spreadMethod="pad" id="fill1" gradientTransform="matrix(261.204 0 0 261.204 1387.78 206.993)"><stop offset="0" stop-color="#FFFFFF"/><stop offset="0.3" stop-color="#F4E518"/><stop offset="0.59" stop-color="#F9C511"/><stop offset="1" stop-color="#F79247"/></radialGradient></defs><g transform="translate(-870 -334)"><g><g><g><path d="M650.122 22.1235C650.122 22.1235 603.95 18.9499 588.025 65.1155 572.1 111.281 573.716 181.341 573.716 181.341 573.716 181.341 522.775 286.423 467.047 327.821 411.318 369.219 320.573 416.971 320.573 416.971 320.573 416.971 301.475 432.896 291.912 455.189 282.356 477.475 239.378 603.256 239.378 603.256 239.378 603.256 207.529 681.278 158.176 733.811 108.815 786.352 84.9356 797.502 57.8681 805.457 30.8078 813.412 21.2516 821.382 21.2516 821.382L72.1988 1365.89C72.1988 1365.89 183.642 1310.17 225.04 1318.12 266.439 1326.08 331.716 1326.08 381.07 1351.56 430.423 1377.04 688.347 1386.58 823.677 1332.45 959.007 1278.33 990.856 1308.58 1021.1 1233.74 1051.35 1158.91 973.324 1155.72 968.556 1128.66 963.789 1101.6 1048.16 1104.78 1059.31 1044.28 1063.06 1023.92 1034.96 976.15 987.676 942.381 965.383 926.457 1081.61 947.156 1070.46 838.893 1065.27 788.286 1051.35 776.803 1003.59 764.066 955.841 751.329 1081.61 732.224 1075.24 655.797 1070.91 603.83 1000.52 551.891 890.556 544.354 774.338 536.398 713.835 537.992 713.835 537.992L592.835 530.03C592.835 530.03 674.037 397.888 704.278 350.121 734.527 302.362 772.73 195.686 769.549 173.4 766.432 151.029 761.615 9.32294 650.186 22.0597L650.122 22.1235Z" stroke="#000000" stroke-width="68.8401" stroke-miterlimit="10" fill="#FFFFFF" transform="matrix(1 0 0 1.00034 1102 469)"/><path d="M620.705 1020.01C620.705 1032.66 574.3 1042.91 517.054 1042.91 459.809 1042.91 413.402 1032.66 413.402 1020.01 413.402 1007.37 459.809 997.115 517.054 997.115 574.3 997.115 620.705 1007.37 620.705 1020.01Z" fill="#000000" fill-opacity="0.39216" transform="matrix(1.29719 0.029017 -0.0223482 0.99975 630.81 -237.645)"/><path d="M1296.25 1045.61C1296.25 1139.46 1220.22 1198.37 1140.84 1198.37 1061.48 1198.37 998.511 1157.82 998.511 1063.98 998.511 970.132 1062.93 893.969 1142.3 893.969 1221.67 893.969 1296.25 951.769 1296.25 1045.61Z" stroke="#000000" stroke-width="19.7597" stroke-linecap="round" stroke-linejoin="round" fill="#FFFFFF" transform="matrix(0.99975 0.0223634 -0.0223558 1.00009 161.312 -419.408)"/><path d="M1115.94 947.627C1109.74 985.396 1074.97 1017.16 1051.41 1013.73 1027.85 1010.3 1017.57 980.681 1020.49 947.627 1023.42 914.573 1047.17 887.747 1073.51 887.747 1099.86 887.747 1122.12 909.943 1115.94 947.627Z" stroke="#000000" stroke-width="19.7597" stroke-linecap="round" stroke-linejoin="round" fill="#FFFFFF" transform="matrix(0.99975 0.0223634 -0.0223558 1.00009 161.312 -419.408)"/><path d="M1124.22 940.008C1129.45 981.953 1161.53 1009.96 1188.38 1006.16 1215.24 1002.35 1238.53 971.209 1230.91 935.65 1223.59 901.478 1206.68 885.163 1176.59 880.767 1147.91 876.578 1119 898.154 1124.22 940.008Z" stroke="#000000" stroke-width="19.7597" stroke-linecap="round" stroke-linejoin="round" fill="#FFFFFF" transform="matrix(0.99975 0.0223634 -0.0223558 1.00009 161.312 -419.408)"/><path d="M1208.07 1111.11C1209.9 1163.79 1183.57 1182.69 1139.07 1182.69 1076.66 1182.69 1048.69 1163.79 1046.86 1111.11 1045.02 1058.43 1070.53 1015.67 1115.02 1015.67 1159.52 1015.67 1206.24 1058.43 1208.07 1111.11Z" transform="matrix(0.99975 0.0223634 -0.0223558 1.00009 161.312 -419.408)"/><path d="M421.553 889.971C421.553 892.985 418.734 895.429 415.255 895.429 411.777 895.429 408.957 892.985 408.957 889.971 408.957 886.956 411.777 884.512 415.255 884.512 418.734 884.512 421.553 886.956 421.553 889.971Z" stroke="#000000" stroke-width="11.4248" stroke-linecap="round" stroke-linejoin="round" fill="none" transform="matrix(0.99975 0.0223634 -0.0246052 1.10072 912.846 -434.583)"/><path d="M421.553 889.971C421.553 892.985 418.734 895.429 415.255 895.429 411.777 895.429 408.957 892.985 408.957 889.971 408.957 886.956 411.777 884.512 415.255 884.512 418.734 884.512 421.553 886.956 421.553 889.971Z" stroke="#000000" stroke-width="11.4248" stroke-linecap="round" stroke-linejoin="round" fill="none" transform="matrix(0.99975 0.0223634 -0.0246052 1.10072 825.677 -434.354)"/><path d="M605.139 654.652C605.139 640.461 593.628 628.949 579.437 628.949 565.245 628.949 553.734 640.461 553.734 654.652 553.734 668.843 565.245 680.355 579.437 680.355 593.628 680.355 605.139 668.843 605.139 654.652ZM594.86 654.652C594.86 663.168 587.951 670.075 579.437 670.075 570.923 670.075 564.016 663.168 564.016 654.652 564.016 646.138 570.923 639.231 579.437 639.231 587.951 639.231 594.86 646.138 594.86 654.652Z" stroke="#231F20" stroke-width="21.6875" stroke-miterlimit="22.9256" fill="#FFF200" transform="matrix(1 0 0 1.00034 850.096 109.434)"/><path d="M1447.36 293.09C1519.45 293.09 1577.92 234.626 1577.92 162.533 1577.92 90.4403 1519.45 31.9762 1447.36 31.9762 1375.27 31.9762 1316.8 90.4403 1316.8 162.533 1316.8 234.626 1375.27 293.09 1447.36 293.09" fill="url(#fill0)" fill-rule="evenodd" transform="matrix(1 0 0 -1.00034 -159.753 878.132)"/><path d="M437.509 475.347C509.602 475.347 568.066 533.812 568.066 605.903 568.066 677.996 509.602 736.46 437.509 736.46 365.416 736.46 306.952 677.996 306.952 605.903 306.952 533.812 365.416 475.347 437.509 475.347Z" stroke="#231F20" stroke-width="21.6875" stroke-miterlimit="22.9256" fill="none" transform="matrix(1 0 0 1.00034 850.096 109.434)"/><path d="M481.498 542.991C492.313 542.991 501.081 551.761 501.081 562.574 501.081 573.389 492.313 582.159 481.498 582.159 470.683 582.159 461.915 573.389 461.915 562.574 461.915 551.761 470.683 542.991 481.498 542.991Z" stroke="#231F20" stroke-width="21.6875" stroke-miterlimit="22.9256" fill="#231F20" fill-rule="evenodd" transform="matrix(1 0 0 1.00034 850.096 109.434)"/><path d="M392.888 524.746C419.204 524.746 440.544 542.79 440.544 565.038 440.544 587.288 419.204 605.329 392.888 605.329 366.574 605.329 345.234 587.288 345.234 565.038 345.234 542.79 366.574 524.746 392.888 524.746Z" stroke="#231F20" stroke-width="21.6875" stroke-miterlimit="22.9256" fill="#231F20" fill-rule="evenodd" transform="matrix(1 0 0 1.00034 850.096 109.434)"/><path d="M379.138 679.895 477.414 652.106" stroke="#231F20" stroke-width="21.6875" stroke-miterlimit="22.9256" fill="none" transform="matrix(1 0 0 1.00034 850.096 109.434)"/><path d="M413.406 546.976 487.044 484.455" stroke="#231F20" stroke-width="21.6875" stroke-miterlimit="22.9256" fill="none" transform="matrix(1 0 0 1.00034 850.096 109.434)"/><path d="M362.001 583.099 313.372 626.171" stroke="#231F20" stroke-width="21.6875" stroke-miterlimit="22.9256" fill="none" transform="matrix(1 0 0 1.00034 850.096 109.434)"/><path d="M434.942 360.202C391.743 360.202 356.71 388.788 356.71 424.038 356.71 459.288 391.743 487.876 434.942 487.876 478.144 487.876 513.177 459.288 513.177 424.038 513.177 388.788 478.144 360.202 434.942 360.202Z" stroke="#231F20" stroke-width="21.6875" stroke-miterlimit="22.9256" fill="#231F20" fill-rule="evenodd" transform="matrix(1 0 0 1.00034 850.096 109.434)"/><path d="M536.849 520.607 338.024 522.548 253.629 425.81 616.255 422.268 536.849 520.607 536.849 520.607Z" stroke="#231F20" stroke-width="21.6875" stroke-miterlimit="22.9256" fill="#231F20" transform="matrix(1 0 0 1.00034 850.096 109.434)"/><path d="M398.458 488.702 472.44 462.625C472.08 460.221 472.156 458.768 472.607 457.719 473.12 456.527 474.026 455.934 475.283 455.151 476.024 454.686 476.849 454.673 477.642 454.963 478.302 455.206 478.943 455.675 479.476 456.271 479.996 456.851 480.422 457.565 480.67 458.308 481.052 459.447 481.034 460.676 480.355 461.692L480.355 461.694C479.092 463.591 478.465 464.995 478.231 465.582 478.579 465.959 479.76 466.671 483.35 465.474L483.35 465.472C484.62 465.048 485.555 465.184 486.185 465.698 486.664 466.088 486.935 466.673 487.017 467.378 487.089 467.992 487.015 468.713 486.816 469.476 486.156 471.989 484.053 475.1 481.228 476.356 476.414 478.494 475.39 474.046 475.171 472.047L401.19 498.124C401.552 500.528 401.476 501.978 401.023 503.03 400.512 504.221 399.605 504.813 398.349 505.598 397.606 506.062 396.78 506.076 395.988 505.786 395.327 505.542 394.689 505.074 394.156 504.478 393.636 503.898 393.209 503.184 392.959 502.44 392.578 501.302 392.596 500.073 393.274 499.057L393.274 499.055C394.539 497.158 395.164 495.754 395.401 495.167 395.053 494.79 393.872 494.078 390.279 495.277L390.279 495.277C389.012 495.701 388.076 495.565 387.445 495.051 386.967 494.661 386.697 494.076 386.615 493.373 386.541 492.757 386.615 492.036 386.816 491.273 387.474 488.76 389.578 485.649 392.404 484.393 397.218 482.255 398.24 486.702 398.458 488.702L398.458 488.702Z" stroke="#231F20" stroke-width="21.6875" stroke-miterlimit="22.9256" fill="#E9E9E9" transform="matrix(1 0 0 1.00034 850.096 109.434)"/><path d="M405.941 457.978 477.265 490.632C478.675 488.655 479.737 487.664 480.793 487.222 481.989 486.72 483.051 486.926 484.502 487.234 485.357 487.414 485.961 487.979 486.328 488.738 486.635 489.372 486.769 490.153 486.738 490.954 486.709 491.73 486.519 492.541 486.182 493.248 485.665 494.333 484.799 495.203 483.605 495.462L483.603 495.464C481.375 495.951 479.949 496.524 479.371 496.783 479.36 497.294 479.715 498.629 483.129 500.265L483.129 500.262C484.339 500.84 484.915 501.588 485.011 502.394 485.087 503.007 484.875 503.617 484.444 504.179 484.069 504.672 483.513 505.139 482.842 505.549 480.619 506.899 476.945 507.674 474.042 506.614 469.092 504.806 471.449 500.896 472.681 499.307L401.357 466.653C399.945 468.632 398.882 469.621 397.829 470.063 396.633 470.565 395.568 470.362 394.12 470.052 393.265 469.871 392.66 469.306 392.292 468.547 391.986 467.914 391.853 467.13 391.884 466.334 391.913 465.555 392.102 464.745 392.439 464.037 392.955 462.953 393.823 462.082 395.017 461.821L395.019 461.821C397.247 461.335 398.67 460.761 399.248 460.502 399.26 459.991 398.907 458.657 395.49 457.023L395.49 457.023C394.283 456.445 393.707 455.697 393.609 454.892 393.535 454.278 393.749 453.671 394.178 453.106 394.553 452.613 395.106 452.147 395.78 451.736 398.001 450.388 401.676 449.611 404.58 450.671 409.53 452.479 407.173 456.389 405.941 457.978Z" stroke="#231F20" stroke-width="21.6875" stroke-miterlimit="22.9256" fill="#E9E9E9" transform="matrix(1 0 0 1.00034 850.096 109.434)"/><path d="M454.715 480.295C454.771 481.101 454.8 481.918 454.8 482.746 454.8 495.181 448.337 505.266 440.365 505.266 432.394 505.266 425.928 495.181 425.928 482.746L425.931 482.219C419.657 477.441 415.533 469.373 415.533 460.225 415.533 445.559 426.136 433.664 439.207 433.664 452.283 433.664 462.883 445.559 462.883 460.225 462.883 468.239 459.719 475.426 454.715 480.295L454.715 480.295Z" stroke="#918F90" stroke-width="21.6875" stroke-miterlimit="22.9256" fill="#F4F4F4" fill-rule="evenodd" transform="matrix(1 0 0 1.00034 850.096 109.434)"/><path d="M446.88 451.859C450.225 451.859 452.939 455.865 452.939 460.803 452.939 465.744 450.225 469.75 446.88 469.75 443.532 469.75 440.821 465.744 440.821 460.803 440.821 455.865 443.532 451.859 446.88 451.859Z" stroke="#918F90" stroke-width="21.6875" stroke-miterlimit="22.9256" fill="none" transform="matrix(1 0 0 1.00034 850.096 109.434)"/><path d="M430.907 451.283C434.253 451.283 436.967 455.289 436.967 460.228 436.967 465.166 434.253 469.172 430.907 469.172 427.56 469.172 424.848 465.166 424.848 460.228 424.848 455.289 427.56 451.283 430.907 451.283Z" stroke="#918F90" stroke-width="21.6875" stroke-miterlimit="22.9256" fill="none" transform="matrix(1 0 0 1.00034 850.096 109.434)"/><path d="M431.988 480.074 448.763 480.074" stroke="#918F90" stroke-width="21.6875" stroke-miterlimit="22.9256" fill="none" transform="matrix(1 0 0 1.00034 850.096 109.434)"/><path d="M432.782 480.373 432.782 491.617" stroke="#918F90" stroke-width="21.6875" stroke-miterlimit="22.9256" fill="none" transform="matrix(1 0 0 1.00034 850.096 109.434)"/><path d="M436.815 480.373 436.815 491.617" stroke="#918F90" stroke-width="21.6875" stroke-miterlimit="22.9256" fill="none" transform="matrix(1 0 0 1.00034 850.096 109.434)"/><path d="M440.243 480.373 440.243 491.617" stroke="#918F90" stroke-width="21.6875" stroke-miterlimit="22.9256" fill="none" transform="matrix(1 0 0 1.00034 850.096 109.434)"/><path d="M444.014 480.373 444.014 491.617" stroke="#918F90" stroke-width="21.6875" stroke-miterlimit="22.9256" fill="none" transform="matrix(1 0 0 1.00034 850.096 109.434)"/><path d="M448.105 480.32 448.105 491.561" stroke="#918F90" stroke-width="21.6875" stroke-miterlimit="22.9256" fill="none" transform="matrix(1 0 0 1.00034 850.096 109.434)"/><path d="M432.048 491.429 448.812 491.429" stroke="#918F90" stroke-width="21.6875" stroke-miterlimit="22.9256" fill="none" transform="matrix(1 0 0 1.00034 850.096 109.434)"/><path d="M147.957 0C147.957 81.7146 81.7146 147.957 0 147.957-81.7146 147.957-147.957 81.7146-147.957 0-147.957-81.7146-81.7146-147.957 0-147.957 81.7146-147.957 147.957-81.7146 147.957 0Z" stroke="#000000" stroke-width="75.6753" fill="#EFFF00" transform="matrix(1 0 0 1.00034 1304.47 679.327)"/><path d="M62.2978-38.9361C62.2978-30.3346 55.3249-23.3617 46.7234-23.3617 38.1218-23.3617 31.1489-30.3346 31.1489-38.9361 31.1489-47.5377 38.1218-54.5106 46.7234-54.5106 55.3249-54.5106 62.2978-47.5377 62.2978-38.9361Z" transform="matrix(1 0 0 1.00034 1304.47 679.327)"/><path d="M-31.1489-38.9361C-31.1489-30.3346-38.1218-23.3617-46.7234-23.3617-55.3249-23.3617-62.2978-30.3346-62.2978-38.9361-62.2978-47.5377-55.3249-54.5106-46.7234-54.5106-38.1218-54.5106-31.1489-47.5377-31.1489-38.9361Z" transform="matrix(1 0 0 1.00034 1304.47 679.327)"/><path d="M88.0759 0C88.0759 48.6428 48.6428 88.0759 2.19824e-06 88.0759-48.6428 88.0759-88.0751 48.6428-88.0751 2.19824e-06" stroke="#000000" stroke-width="75.6753" fill="none" transform="matrix(1 0 0 1.00034 1304.47 679.327)"/><path d="M34.2637-93.4465C47.166-93.4465 57.6254-82.9875 57.6254-70.0849 57.6254-57.1827 47.166-46.7233 34.2637-46.7233L38.9361-46.7233C51.4083-46.7233 61.519-36.6126 61.519-24.1404 61.519-11.6681 51.4083-1.55744 38.9361-1.55744L31.9276 0C43.5396-3.45821e-15 52.953 9.41341 52.953 21.0255 52.953 32.6375 43.5396 42.0509 31.9276 42.0509L18.6893 42.8297C28.581 42.8297 36.5999 50.8485 36.5999 60.7402 36.5999 70.632 28.5811 78.6508 18.6893 78.6508L-46.7233 85.6593C-61.1985 83.5887-71.2543 70.1755-69.1836 55.7003-68.7333 52.5525-67.7197 49.5116-66.1913 46.7233-80.0346 36.5098-82.9766 17.0081-72.7631 3.16511-71.9416 2.05177-71.0469 0.994388-70.0849-5.91828e-08-82.2322-12.1812-82.2049-31.9035-70.0239-44.0511-69.0652-45.0073-68.045-45.8998-66.97-46.7233-76.541-61.0181-72.7114-80.3648-58.4166-89.9361-56.2337-91.3977-53.8746-92.5775-51.3956-93.4465L34.2637-93.4465ZM-38.9361-93.4465-15.5744-124.595-11.6808-147.957C-19.8167-173.286-16.1457-207.01-3.48123-223.282 9.18322-239.554 26.0453-232.212 34.1813-206.883 40.9276-185.88 39.6783-158.395 31.1488-140.17L35.0424-93.4465Z" stroke="#000000" stroke-width="75.6751" stroke-linejoin="round" fill="#EFFF00" transform="matrix(0.998629 -0.052354 0.0523361 0.99897 1195.45 718.277)"/><path d="M34.2637-46.7233-20.2467-46.7233M31.9276 0-17.1319 0M18.6893 42.8297-17.9106 44.3871" stroke="#000000" stroke-width="75.6751" stroke-linecap="round" stroke-linejoin="round" fill="none" transform="matrix(0.998629 -0.052354 0.0523361 0.99897 1195.45 718.277)"/></g></g></g><g><g><g><path d="M650.345 22.1311C650.345 22.1311 604.156 18.9564 588.226 65.1378 572.296 111.319 573.912 181.403 573.912 181.403 573.912 181.403 522.954 286.521 467.206 327.933 411.459 369.345 320.683 417.114 320.683 417.114 320.683 417.114 301.578 433.044 292.012 455.345 282.453 477.638 239.46 603.462 239.46 603.462 239.46 603.462 207.6 681.511 158.23 734.062 108.853 786.621 84.9647 797.775 57.8879 805.733 30.8183 813.691 21.2589 821.663 21.2589 821.663L72.2235 1366.36C72.2235 1366.36 183.705 1310.62 225.117 1318.58 266.53 1326.53 331.83 1326.53 381.2 1352.02 430.57 1377.51 688.582 1387.05 823.959 1332.91 959.335 1278.77 991.195 1309.02 1021.45 1234.16 1051.71 1159.3 973.657 1156.11 968.888 1129.05 964.119 1101.98 1048.52 1105.16 1059.68 1044.63 1063.43 1024.27 1035.31 976.484 988.014 942.704 965.713 926.774 1081.98 947.48 1070.83 839.18 1065.63 788.556 1051.71 777.069 1003.94 764.328 956.168 751.586 1081.98 732.475 1075.61 656.021 1071.28 604.036 1000.86 552.08 890.861 544.54 774.603 536.582 714.079 538.176 714.079 538.176L593.038 530.211C593.038 530.211 674.268 398.024 704.519 350.241 734.778 302.465 772.994 195.753 769.812 173.459 766.695 151.081 761.876 9.32613 650.408 22.0673L650.345 22.1311Z" stroke="#000000" stroke-width="68.8637" stroke-miterlimit="10" stroke-opacity="0.98" fill="#FFFFFF" transform="matrix(-1.00057 1.22534e-16 -1.22465e-16 -1 3462 1865)"/><path d="M620.705 1020.01C620.705 1032.66 574.3 1042.91 517.055 1042.91 459.809 1042.91 413.402 1032.66 413.402 1020.01 413.402 1007.37 459.809 997.116 517.055 997.116 574.3 997.116 620.705 1007.37 620.705 1020.01Z" fill="#000000" fill-opacity="0.39216" transform="matrix(-1.29837 -0.0290169 0.0223685 -0.99975 3933.62 2571.64)"/><path d="M1296.69 1045.97C1296.69 1139.85 1220.63 1198.78 1141.23 1198.78 1061.84 1198.78 998.853 1158.22 998.853 1064.34 998.853 970.464 1063.29 894.275 1142.69 894.275 1222.09 894.275 1296.69 952.095 1296.69 1045.97Z" stroke="#000000" stroke-width="19.7664" stroke-linecap="round" stroke-linejoin="round" stroke-opacity="0.98" fill="#FFFFFF" transform="matrix(-1.00032 -0.0223558 0.0223685 -0.99975 4403.54 2753.41)"/><path d="M1116.32 947.951C1110.12 985.733 1075.34 1017.5 1051.77 1014.08 1028.21 1010.64 1017.91 981.016 1020.84 947.951 1023.77 914.886 1047.53 888.051 1073.88 888.051 1100.23 888.051 1122.51 910.255 1116.32 947.951Z" stroke="#000000" stroke-width="19.7664" stroke-linecap="round" stroke-linejoin="round" stroke-opacity="0.98" fill="#FFFFFF" transform="matrix(-1.00032 -0.0223558 0.0223685 -0.99975 4403.54 2753.41)"/><path d="M1124.61 940.33C1129.84 982.29 1161.93 1010.31 1188.79 1006.5 1215.65 1002.69 1238.95 971.542 1231.33 935.971 1224.01 901.787 1207.09 885.466 1176.99 881.068 1148.31 876.878 1119.39 898.461 1124.61 940.33Z" stroke="#000000" stroke-width="19.7664" stroke-linecap="round" stroke-linejoin="round" stroke-opacity="0.98" fill="#FFFFFF" transform="matrix(-1.00032 -0.0223558 0.0223685 -0.99975 4403.54 2753.41)"/><path d="M1208.48 1111.49C1210.32 1164.19 1183.97 1183.1 1139.46 1183.1 1077.03 1183.1 1049.05 1164.19 1047.21 1111.49 1045.38 1058.79 1070.89 1016.02 1115.4 1016.02 1159.92 1016.02 1206.65 1058.79 1208.48 1111.49Z" transform="matrix(-1.00032 -0.0223558 0.0223685 -0.99975 4403.54 2753.41)"/><path d="M421.937 890.781C421.937 893.798 419.115 896.244 415.633 896.244 412.152 896.244 409.329 893.798 409.329 890.781 409.329 887.763 412.152 885.317 415.633 885.317 419.115 885.317 421.937 887.763 421.937 890.781Z" stroke="#000000" stroke-width="11.4352" stroke-linecap="round" stroke-linejoin="round" stroke-opacity="0.98" fill="none" transform="matrix(-0.99975 -0.0223431 0.0246052 -1.09972 3651.33 2768.58)"/><path d="M421.937 890.781C421.937 893.798 419.115 896.244 415.633 896.244 412.152 896.244 409.329 893.798 409.329 890.781 409.329 887.763 412.152 885.317 415.633 885.317 419.115 885.317 421.937 887.763 421.937 890.781Z" stroke="#000000" stroke-width="11.4352" stroke-linecap="round" stroke-linejoin="round" stroke-opacity="0.98" fill="none" transform="matrix(-0.99975 -0.0223431 0.0246052 -1.09972 3738.57 2768.35)"/><path d="M605.346 654.876C605.346 640.68 593.831 629.164 579.635 629.164 565.439 629.164 553.923 640.68 553.923 654.876 553.923 669.072 565.439 680.587 579.635 680.587 593.831 680.587 605.346 669.072 605.346 654.876ZM595.063 654.876C595.063 663.395 588.152 670.305 579.635 670.305 571.118 670.305 564.208 663.395 564.208 654.876 564.208 646.359 571.118 639.45 579.635 639.45 588.152 639.45 595.063 646.359 595.063 654.876Z" stroke="#231F20" stroke-width="21.6949" stroke-miterlimit="22.9256" stroke-opacity="0.98" fill="#FFF200" transform="matrix(-1.00057 1.22534e-16 -1.22465e-16 -1 3714.13 2224.57)"/><path d="M1447.85 293.191C1519.97 293.191 1578.46 234.706 1578.46 162.589 1578.46 90.4713 1519.97 31.9872 1447.85 31.9872 1375.74 31.9872 1317.25 90.4713 1317.25 162.589 1317.25 234.706 1375.74 293.191 1447.85 293.191" fill="url(#fill1)" fill-rule="evenodd" transform="matrix(-1.00057 1.22534e-16 1.22465e-16 1 4724.9 1455.87)"/><path d="M437.659 475.51C509.776 475.51 568.26 533.994 568.26 606.11 568.26 678.228 509.776 736.712 437.659 736.712 365.541 736.712 307.057 678.228 307.057 606.11 307.057 533.994 365.541 475.51 437.659 475.51Z" stroke="#231F20" stroke-width="21.6949" stroke-miterlimit="22.9256" stroke-opacity="0.98" fill="none" transform="matrix(-1.00057 1.22534e-16 -1.22465e-16 -1 3714.13 2224.57)"/><path d="M481.663 543.176C492.481 543.176 501.253 551.95 501.253 562.766 501.253 573.585 492.481 582.358 481.663 582.358 470.844 582.358 462.073 573.585 462.073 562.766 462.073 551.95 470.844 543.176 481.663 543.176Z" stroke="#231F20" stroke-width="21.6949" stroke-miterlimit="22.9256" stroke-opacity="0.98" fill="#231F20" fill-rule="evenodd" transform="matrix(-1.00057 1.22534e-16 -1.22465e-16 -1 3714.13 2224.57)"/><path d="M393.022 524.926C419.348 524.926 440.695 542.975 440.695 565.231 440.695 587.489 419.348 605.536 393.022 605.536 366.699 605.536 345.352 587.489 345.352 565.231 345.352 542.975 366.699 524.926 393.022 524.926Z" stroke="#231F20" stroke-width="21.6949" stroke-miterlimit="22.9256" stroke-opacity="0.98" fill="#231F20" fill-rule="evenodd" transform="matrix(-1.00057 1.22534e-16 -1.22465e-16 -1 3714.13 2224.57)"/><path d="M379.268 680.127 477.577 652.329" stroke="#231F20" stroke-width="21.6949" stroke-miterlimit="22.9256" stroke-opacity="0.98" fill="none" transform="matrix(-1.00057 1.22534e-16 -1.22465e-16 -1 3714.13 2224.57)"/><path d="M413.548 547.164 487.21 484.621" stroke="#231F20" stroke-width="21.6949" stroke-miterlimit="22.9256" stroke-opacity="0.98" fill="none" transform="matrix(-1.00057 1.22534e-16 -1.22465e-16 -1 3714.13 2224.57)"/><path d="M362.125 583.298 313.479 626.385" stroke="#231F20" stroke-width="21.6949" stroke-miterlimit="22.9256" stroke-opacity="0.98" fill="none" transform="matrix(-1.00057 1.22534e-16 -1.22465e-16 -1 3714.13 2224.57)"/><path d="M435.091 360.326C391.877 360.326 356.832 388.921 356.832 424.183 356.832 459.445 391.877 488.043 435.091 488.043 478.307 488.043 513.353 459.445 513.353 424.183 513.353 388.921 478.307 360.326 435.091 360.326Z" stroke="#231F20" stroke-width="21.6949" stroke-miterlimit="22.9256" stroke-opacity="0.98" fill="#231F20" fill-rule="evenodd" transform="matrix(-1.00057 1.22534e-16 -1.22465e-16 -1 3714.13 2224.57)"/><path d="M537.033 520.785 338.139 522.727 253.716 425.956 616.466 422.413 537.033 520.785 537.033 520.785Z" stroke="#231F20" stroke-width="21.6949" stroke-miterlimit="22.9256" stroke-opacity="0.98" fill="#231F20" transform="matrix(-1.00057 1.22534e-16 -1.22465e-16 -1 3714.13 2224.57)"/><path d="M398.595 488.869 472.601 462.783C472.242 460.378 472.318 458.925 472.769 457.876 473.282 456.684 474.188 456.09 475.445 455.306 476.187 454.842 477.013 454.828 477.805 455.119 478.466 455.362 479.107 455.831 479.64 456.427 480.16 457.007 480.587 457.722 480.835 458.465 481.216 459.604 481.198 460.834 480.52 461.85L480.52 461.852C479.256 463.749 478.629 465.154 478.394 465.741 478.743 466.118 479.924 466.83 483.516 465.634L483.516 465.631C484.786 465.207 485.721 465.343 486.351 465.857 486.831 466.248 487.101 466.832 487.184 467.538 487.255 468.152 487.181 468.873 486.983 469.636 486.322 472.15 484.219 475.262 481.393 476.519 476.577 478.658 475.553 474.209 475.334 472.208L401.327 498.295C401.689 500.699 401.613 502.15 401.16 503.202 400.649 504.394 399.742 504.985 398.485 505.771 397.742 506.236 396.916 506.249 396.123 505.959 395.463 505.715 394.824 505.247 394.29 504.651 393.77 504.07 393.344 503.356 393.094 502.612 392.712 501.474 392.73 500.244 393.409 499.228L393.409 499.226C394.674 497.328 395.3 495.924 395.536 495.337 395.188 494.959 394.007 494.247 390.413 495.446L390.413 495.446C389.145 495.87 388.209 495.734 387.577 495.221 387.1 494.83 386.83 494.245 386.747 493.542 386.673 492.926 386.747 492.205 386.948 491.441 387.606 488.927 389.712 485.815 392.538 484.558 397.353 482.42 398.376 486.869 398.595 488.869L398.595 488.869Z" stroke="#231F20" stroke-width="21.6949" stroke-miterlimit="22.9256" stroke-opacity="0.98" fill="#E9E9E9" transform="matrix(-1.00057 1.22534e-16 -1.22465e-16 -1 3714.13 2224.57)"/><path d="M406.08 458.135 477.428 490.8C478.839 488.822 479.901 487.831 480.957 487.389 482.154 486.887 483.217 487.092 484.668 487.4 485.523 487.581 486.128 488.146 486.494 488.905 486.802 489.539 486.936 490.32 486.905 491.122 486.876 491.899 486.686 492.709 486.349 493.417 485.831 494.502 484.965 495.372 483.77 495.631L483.768 495.634C481.54 496.12 480.113 496.694 479.535 496.953 479.524 497.464 479.879 498.799 483.295 500.436L483.295 500.433C484.505 501.012 485.081 501.76 485.177 502.565 485.253 503.179 485.041 503.789 484.61 504.351 484.235 504.845 483.679 505.311 483.007 505.722 480.783 507.073 477.109 507.847 474.204 506.787 469.252 504.979 471.61 501.067 472.842 499.478L401.495 466.812C400.082 468.793 399.019 469.782 397.965 470.224 396.769 470.726 395.704 470.523 394.255 470.212 393.4 470.032 392.795 469.467 392.426 468.708 392.121 468.074 391.987 467.29 392.018 466.493 392.047 465.714 392.237 464.904 392.574 464.196 393.089 463.111 393.958 462.24 395.152 461.979L395.154 461.979C397.382 461.492 398.807 460.919 399.385 460.66 399.396 460.148 399.043 458.813 395.626 457.179L395.626 457.179C394.418 456.601 393.842 455.853 393.744 455.047 393.67 454.433 393.884 453.826 394.313 453.261 394.688 452.768 395.242 452.301 395.916 451.891 398.137 450.542 401.814 449.765 404.718 450.826 409.67 452.634 407.312 456.545 406.08 458.135Z" stroke="#231F20" stroke-width="21.6949" stroke-miterlimit="22.9256" stroke-opacity="0.98" fill="#E9E9E9" transform="matrix(-1.00057 1.22534e-16 -1.22465e-16 -1 3714.13 2224.57)"/><path d="M454.871 480.459C454.927 481.265 454.956 482.082 454.956 482.911 454.956 495.35 448.49 505.439 440.516 505.439 432.542 505.439 426.074 495.35 426.074 482.911L426.076 482.384C419.801 477.604 415.675 469.534 415.675 460.383 415.675 445.711 426.282 433.812 439.357 433.812 452.437 433.812 463.042 445.711 463.042 460.383 463.042 468.4 459.876 475.588 454.871 480.459L454.871 480.459Z" stroke="#918F90" stroke-width="21.6949" stroke-miterlimit="22.9256" stroke-opacity="0.98" fill="#F4F4F4" fill-rule="evenodd" transform="matrix(-1.00057 1.22534e-16 -1.22465e-16 -1 3714.13 2224.57)"/><path d="M447.033 452.013C450.379 452.013 453.094 456.021 453.094 460.961 453.094 465.904 450.379 469.911 447.033 469.911 443.684 469.911 440.971 465.904 440.971 460.961 440.971 456.021 443.684 452.013 447.033 452.013Z" stroke="#918F90" stroke-width="21.6949" stroke-miterlimit="22.9256" stroke-opacity="0.98" fill="none" transform="matrix(-1.00057 1.22534e-16 -1.22465e-16 -1 3714.13 2224.57)"/><path d="M431.055 451.437C434.401 451.437 437.116 455.445 437.116 460.385 437.116 465.326 434.401 469.333 431.055 469.333 427.706 469.333 424.994 465.326 424.994 460.385 424.994 455.445 427.706 451.437 431.055 451.437Z" stroke="#918F90" stroke-width="21.6949" stroke-miterlimit="22.9256" stroke-opacity="0.98" fill="none" transform="matrix(-1.00057 1.22534e-16 -1.22465e-16 -1 3714.13 2224.57)"/><path d="M432.135 480.238 448.917 480.238" stroke="#918F90" stroke-width="21.6949" stroke-miterlimit="22.9256" stroke-opacity="0.98" fill="none" transform="matrix(-1.00057 1.22534e-16 -1.22465e-16 -1 3714.13 2224.57)"/><path d="M432.93 480.538 432.93 491.785" stroke="#918F90" stroke-width="21.6949" stroke-miterlimit="22.9256" stroke-opacity="0.98" fill="none" transform="matrix(-1.00057 1.22534e-16 -1.22465e-16 -1 3714.13 2224.57)"/><path d="M436.964 480.538 436.964 491.785" stroke="#918F90" stroke-width="21.6949" stroke-miterlimit="22.9256" stroke-opacity="0.98" fill="none" transform="matrix(-1.00057 1.22534e-16 -1.22465e-16 -1 3714.13 2224.57)"/><path d="M440.393 480.538 440.393 491.785" stroke="#918F90" stroke-width="21.6949" stroke-miterlimit="22.9256" stroke-opacity="0.98" fill="none" transform="matrix(-1.00057 1.22534e-16 -1.22465e-16 -1 3714.13 2224.57)"/><path d="M444.166 480.538 444.166 491.785" stroke="#918F90" stroke-width="21.6949" stroke-miterlimit="22.9256" stroke-opacity="0.98" fill="none" transform="matrix(-1.00057 1.22534e-16 -1.22465e-16 -1 3714.13 2224.57)"/><path d="M448.258 480.484 448.258 491.729" stroke="#918F90" stroke-width="21.6949" stroke-miterlimit="22.9256" stroke-opacity="0.98" fill="none" transform="matrix(-1.00057 1.22534e-16 -1.22465e-16 -1 3714.13 2224.57)"/><path d="M432.196 491.597 448.966 491.597" stroke="#918F90" stroke-width="21.6949" stroke-miterlimit="22.9256" stroke-opacity="0.98" fill="none" transform="matrix(-1.00057 1.22534e-16 -1.22465e-16 -1 3714.13 2224.57)"/><path d="M148.008 0C148.008 81.7425 81.7425 148.008 0 148.008-81.7425 148.008-148.008 81.7425-148.008 0-148.008-81.7425-81.7425-148.008 0-148.008 81.7425-148.008 148.008-81.7425 148.008 0Z" stroke="#000000" stroke-width="75.7012" stroke-opacity="0.98" fill="#EFFF00" transform="matrix(-1.00057 1.22534e-16 -1.22465e-16 -1 3259.35 1654.67)"/><path d="M62.3191-38.9495C62.3191-30.345 55.3438-23.3697 46.7394-23.3697 38.1349-23.3697 31.1596-30.345 31.1596-38.9495 31.1596-47.5539 38.1349-54.5292 46.7394-54.5292 55.3438-54.5292 62.3191-47.5539 62.3191-38.9495Z" transform="matrix(-1.00057 1.22534e-16 -1.22465e-16 -1 3259.35 1654.67)"/><path d="M-31.1596-38.9495C-31.1596-30.345-38.1349-23.3697-46.7394-23.3697-55.3438-23.3697-62.3191-30.345-62.3191-38.9495-62.3191-47.5539-55.3438-54.5292-46.7394-54.5292-38.1349-54.5292-31.1596-47.5539-31.1596-38.9495Z" transform="matrix(-1.00057 1.22534e-16 -1.22465e-16 -1 3259.35 1654.67)"/><path d="M88.106 0C88.106 48.6594 48.6594 88.106 2.19899e-06 88.106-48.6594 88.106-88.1052 48.6594-88.1052 2.19899e-06" stroke="#000000" stroke-width="75.7012" stroke-opacity="0.98" fill="none" transform="matrix(-1.00057 1.22534e-16 -1.22465e-16 -1 3259.35 1654.67)"/><path d="M34.2755-93.4786C47.1821-93.4786 57.6451-83.016 57.6451-70.1089 57.6451-57.2023 47.1821-46.7393 34.2755-46.7393L38.9494-46.7393C51.4259-46.7393 61.5401-36.6251 61.5401-24.1486 61.5401-11.6721 51.4259-1.55798 38.9494-1.55798L31.9385 0C43.5545-3.4594e-15 52.9712 9.41664 52.9712 21.0327 52.9712 32.6487 43.5545 42.0654 31.9385 42.0654L18.6957 42.8443C28.5908 42.8443 36.6124 50.866 36.6124 60.7611 36.6124 70.6562 28.5909 78.6778 18.6957 78.6778L-46.7393 85.6887C-61.2195 83.6173-71.2787 70.1995-69.2073 55.7194-68.7569 52.5705-67.7429 49.5286-66.214 46.7393-80.062 36.5223-83.0051 17.014-72.788 3.1662-71.9663 2.05247-71.0713 0.994729-70.1089-5.92031e-08-82.2604-12.1854-82.2331-31.9144-70.0479-44.0662-69.0888-45.0227-68.0683-45.9156-66.993-46.7393-76.5672-61.039-72.7364-80.3923-58.4366-89.9669-56.253-91.429-53.8931-92.6092-51.4132-93.4786L34.2755-93.4786ZM-38.9494-93.4786-15.5798-124.638-11.6848-148.008C-19.8235-173.345-16.1512-207.081-3.48243-223.358 9.18637-239.636 26.0542-232.291 34.193-206.954 40.9417-185.944 39.6919-158.449 31.1595-140.218L35.0545-93.4786Z" stroke="#000000" stroke-width="75.701" stroke-linejoin="round" stroke-opacity="0.98" fill="#EFFF00" transform="matrix(-0.999196 0.052336 -0.0523658 -0.998628 3368.47 1615.72)"/><path d="M34.2755-46.7393-20.2537-46.7393M31.9385 0-17.1377 0M18.6957 42.8443-17.9167 44.4023" stroke="#000000" stroke-width="75.701" stroke-linecap="round" stroke-linejoin="round" stroke-opacity="0.98" fill="none" transform="matrix(-0.999196 0.052336 -0.0523658 -0.998628 3368.47 1615.72)"/></g></g></g><path d="M873.5 628.5C873.5 467.785 1020.57 337.5 1202 337.5 1383.43 337.5 1530.5 467.785 1530.5 628.5 1530.5 789.215 1383.43 919.5 1202 919.5 1020.57 919.5 873.5 789.215 873.5 628.5Z" stroke="#FFFFFF" stroke-width="6.875" stroke-miterlimit="8" fill="#FFFFFF" fill-rule="evenodd"/><path d="M3032.5 1715C3032.5 1554.01 3179.35 1423.5 3360.5 1423.5 3541.65 1423.5 3688.5 1554.01 3688.5 1715 3688.5 1875.99 3541.65 2006.5 3360.5 2006.5 3179.35 2006.5 3032.5 1875.99 3032.5 1715Z" stroke="#FFFFFF" stroke-width="6.875" stroke-miterlimit="8" fill="#FFFFFF" fill-rule="evenodd"/></g></svg>